/* XPM */
static char *_67295e2ba6d49abda9bc6da3e394bebIBIoUZVVEpQ0KcLB[] = {
/* columns rows colors chars-per-pixel */
"74 91 3 1 ",
"  c None",
". c #EFBB05",
"X c #0088CE",
/* pixels */
"                                                                          ",
"                                                                          ",
"                                                                          ",
"                                    ..                                    ",
"                           .       ....       .                           ",
"                           ..      ....      ..                           ",
"                           ...    ......    ...                           ",
"                            ...   ......   ...                            ",
"                            ...   ......   ...                            ",
"                            ...   ......   ...                            ",
"                            ...  ........  ...                            ",
"                             ................                             ",
"                             ................                             ",
"                             ................                             ",
"                             ................                             ",
"                             ................                             ",
"                              ..............                              ",
"              XXXXXXXXXXX                        XXXXXXXXXXX              ",
"           XXXXXXXXXXXXXXXXX                  XXXXXXXXXXXXXXXXX           ",
"         XXXXXXXXXXXXXXXXXXXXX              XXXXXXXXXXXXXXXXXXXXX         ",
"        XXXXXXXXXXXXXXXXXXXXXXX            XXXXXXXXXXXXXXXXXXXXXXX        ",
"       XXXXXXXXXXXXXXXXXXXXXXXXX          XXXXXXXXXXXXXXXXXXXXXXXXX       ",
"      XXXXXXXXXXXXXXXXXXXXXXXXXXX        XXXXXXXXXXXXXXXXXXXXXXXXXXX      ",
"     XXXXXXXXXXXXX     XXXXXXXXXXX      XXXXXXXXXXX     XXXXXXXXXXXXX     ",
"    XXXXXXXXXXX            XXXXXXXX    XXXXXXXX            XXXXXXXXXXX    ",
"    XXXXXXXXX               XXXXXXX    XXXXXXX               XXXXXXXXX    ",
"   XXXXXXXXX                  XXXXXX  XXXXXX                  XXXXXXXXX   ",
"   XXXXXXXX                    XXXXX  XXXXX                    XXXXXXXX   ",
"   XXXXXXX                     XXXXX  XXXXX                     XXXXXXX   ",
"  XXXXXXX               XX      XXXX  XXXX      XX               XXXXXXX  ",
"  XXXXXXX             XXX       XXXX  XXXX       XXX             XXXXXXX  ",
"  XXXXXXX            XXX        XXXX  XXXX        XXX            XXXXXXX  ",
"  XXXXXX             XX         XXXX  XXXX         XX             XXXXXX  ",
"  XXXXXX             XX         XXXX  XXXX         XX             XXXXXX  ",
"  XXXXXX             XXX        XXXX  XXXX        XXX             XXXXXX  ",
"  XXXXXX             XXX       XXXX    XXXX       XXX             XXXXXX  ",
"  XXXXXX             XXXX     XXXXX    XXXXX     XXXX             XXXXXX  ",
"  XXXXXX              XXXXXXXXXXXX      XXXXXXXXXXXX              XXXXXX  ",
"  XXXXXX               XXXXXXXXXX        XXXXXXXXXX               XXXXXX  ",
"   XXXXXX               XXXXXXX            XXXXXXX               XXXXXX   ",
"   XXXXXX                                                        XXXXXX   ",
"   XXXXXX                                                        XXXXXX   ",
"    XXXXXX                                                      XXXXXX    ",
"    XXXXXX                                                      XXXXXX    ",
"    XXXXXXX                                                    XXXXXXX    ",
"     XXXXXXX                                                  XXXXXXX     ",
"      XXXXXX                                                  XXXXXX      ",
"      XXXXXXX                                                XXXXXXX      ",
"       XXXXXXX                                              XXXXXXX       ",
"        XXXXXXX                                            XXXXXXX        ",
"        XXXXXXX                                            XXXXXXX        ",
"         XXXXXXX                                          XXXXXXX         ",
"          XXXXXXX                                        XXXXXXX          ",
"           XXXXXXX                                      XXXXXXX           ",
"            XXXXXXX                                    XXXXXXX            ",
"             XXXXXXX                                  XXXXXXX             ",
"               XXXXXX                                XXXXXX               ",
"                XXXXXXX                            XXXXXXX                ",
"                 XXXXXXX                          XXXXXXX                 ",
"                  XXXXXXX                        XXXXXXX                  ",
"                   XXXXXX                       XXXXXXX                   ",
"                    XXXXXX                      XXXXXX                    ",
"                     XXXXXX                    XXXXXX                     ",
"                      XXXXXX                  XXXXXX                      ",
"                        XXXXX                XXXXX                        ",
"                         XXXXX              XXXXX                         ",
"                         XXXXX              XXXXX                         ",
"                          XXXXX            XXXXX                          ",
"                           XXXXX          XXXXX                           ",
"                            XXXX          XXXX                            ",
"                             XXXX        XXXX                             ",
"                              XXXX      XXXX                              ",
"                              XXXX      XXXX                              ",
"                               XXXX    XXXX                               ",
"                                XXX    XXX                                ",
"                                XXX    XXX                                ",
"                                 XXX  XXX                                 ",
"                                 XXX  XXX                                 ",
"                                 XXX  XXX                                 ",
"                                  XXXXXX                                  ",
"                                  XXXXXX                                  ",
"                                   XXXX                                   ",
"                                   XXXX                                   ",
"                                   XXXX                                   ",
"                                   XXXX                                   ",
"                                    XX                                    ",
"                                    XX                                    ",
"                                    XX                                    ",
"                                                                          ",
"                                                                          ",
"                                                                          "
};
