/* XPM */
static char *f4edd76ab132456b8df803d92dfa46ebog3p7ejHpbLtpcP5[] = {
/* columns rows colors chars-per-pixel */
"91 91 41 1 ",
"  c gray1",
". c #070707",
"X c gray3",
"o c gray5",
"O c #111111",
"+ c #161616",
"@ c #191919",
"# c #1D1D1D",
"$ c #202020",
"% c gray15",
"& c #282828",
"* c #2D2D2D",
"= c #323232",
"- c #373737",
"; c #3A3A3A",
": c gray24",
"> c #414141",
", c #444444",
"< c #494949",
"1 c #4E4E4E",
"2 c #505050",
"3 c #555555",
"4 c gray36",
"5 c #626262",
"6 c #676767",
"7 c #6A6A6A",
"8 c gray43",
"9 c #727272",
"0 c gray46",
"q c gray47",
"w c gray49",
"e c gray51",
"r c #848484",
"t c #898989",
"y c #929292",
"u c #989898",
"i c gray62",
"p c #AAAAAA",
"a c #B4B4B4",
"s c #CECECE",
"d c #DADADA",
/* pixels */
".XX .  .1;                 .  X&o..                                           ..           ",
"XO+o.o Xq5           .         ..                                                          ",
"..oO.. .oo.                 ..  X                                              X           ",
"  ..   .    .      ..&$    .X-+ ..                               .            XO           ",
"      .    .:O      .%#    O&#o              X+           .o       .          .$o         .",
"     .     .o..     .      X+.                X           @<X    oX           .X           ",
"   .%+      ..               .                       X. ..O*.    O.              XO.     .*",
"    $O      .             XX...                      X. oo.. .                   .X      &a",
"                          ** .     oX                   X.   ..     Oo                   @y",
"                          XX.      *$      .                 XX    .%#                    o",
"                                   ..     oX                 OO                           .",
"                      ++                 .@o                                               ",
"                     @iy@                 .                              ..                ",
"                    .+rw+.                        .X.                    +O                ",
"o.                  ..oo.                         O$.                    X.                ",
"o                  ..  .                          .o         XO         .                  ",
"                .                                             X  ..  .. .              oo  ",
"                O  .X    .                                        X  $#                ..  ",
"                O. .X   .o.                                       .  ##.                   ",
"                 ..      .Xo        Xo             X.     @X      ..  .                    ",
"..=#            . .    . XOo.  o.   .X            @e*     +X     ..                        ",
"  *$    oo.    o+        .    .#X                 o:+     .      XX.                       ",
" .      ##     o+          .   .          .O        .            #+    .Oo                 ",
"        ..                                .o                     ... ...oX               . ",
".       ..                                                            .. .X              .,",
".   .+X .X.                                                         +*X. .o.              3",
"+   X%o .                                          .                :t#                   X",
"X          %@ .               +X .                                  o$.                    ",
"         . #+.               .%O.                                                .         ",
"        .O. o#                ...                                               o$.        ",
"         .  o%        XX       . .                                              o%.X       ",
"                      #@          O-X           .X     X.   XX  ..                .%.      ",
"                    ....     .    $4O                    .  .....                  X       ",
"                    X%X           .o.                     X   o&o                   .      ",
"                    .@X            . oo                 . X   .o.                          ",
"            XX                      o$*...       Xo     .                                  ",
"  ...       $#                      @@#X         OO        .o.    X+XX.                    ",
"  @8: .     ..                     .... .         .    .Xo. X.    X$.X.                    ",
"  ,sy.                               .                  X+                                 ",
" .O3=                                         .          . .                     .         ",
"   .                                         .OXX.       ...     o.             ....       ",
"      .  ..                                   .XO.        oo    .O.            X           ",
"         .                         X.                    X87X                 +,X          ",
"                       .+.         oX                    Oup@              . .o=.          ",
"                       X&X          .                     #*.              X.  .           ",
"                  X    ..           .                     ..               .               ",
"  ..           . o&X                             .                            .            ",
"  OO ..          .o            .                 X. .                         .            ",
"  .. .+O               .                         2=            XO.                         ",
"     o<#              .o      OO                 *@            .o       X+.                ",
"     X&o              &7@    .&&                  .                     X+.                ",
"            .+X       $4+.                                                                 ",
"           ..OX        . .                                                @@               ",
"          X.        .              oX                     . %6+ .         -*      XX       ",
"          X        .=o             X.                 O..   %6+ .    .    ..      1<.      ",
"                   .%o     ..        X.        ..     X      .       .           .>:.      ",
"  X                .  .    X..       ..        .X     .  .   ...                 . .       ",
"..*O                 .     $O.    XX          .o+  ....      .  .             o+..         ",
"  X           .         .. .      ...o.            ..%+   oX                   X.    .o.   ",
"            .o+        ...         .O9, .            OX . &$                  ..+.         ",
"             .X       . $O     X  . @u4                   XX.                 . X          ",
"                  Xo. . oX     X  . .@O                                                    ",
"                   .                      .                 .                              ",
"                                          X              ..X.                              ",
"                                                     ..   +e,   ..                         ",
"   X.                                     .          X.   O0,   ..      ..                 ",
"                        ...                         .oX    oX          .&*     ..          ",
"                       ..@X   ..                     .               . .O+                 ",
"                      . ..Xo  ..                                       ..                  ",
"             O&.          .O.                          .                .               X. ",
"             $>.             ..              X$.      .o&o@oX                 ..        #@ ",
"            .                OO              o=.      .o#X#o                  ..         . ",
"                             .      oo                 ...                               ..",
".                                   +@..                  O..                              ",
".+&.  .                              .oO.                 .           ..           ..      ",
".@=X. .                O.             ...                            . .                   ",
"   .o                  O.                                            @>X.                  ",
"   X$ .                                             .o               @3O.                  ",
"   .X                     oo                         .               .o          .         ",
"            XX   oX        .                                          .          .. ...    ",
"            OX   X.                 .                                           X%X  Xo    ",
"                                   .         .o%X                     .         O;o        ",
"  .                               .#O        .@6+.                               X         ",
"  o.                              .&+      X...XXo                     o.         .        ",
"                                             .. o+                    .+o         .        ",
"             . .                              .@+              .        .                  ",
"           oo@1#      Xo                      .$@   ..       o.     +-o.   .. .X ..        ",
"       X   @o<d7X     o+                       ...  .X       OX     O&X  .X.  Xo O$.       ",
"      X$.    $q:.                                                     .   @@     Xo        ",
"      .o      X.                                                        .X..               ",
"                               X+.                                      o#.          oo  Oo"
};
