/* XPM */
static char *_f4ef779e9e249c5da876aa09944675ddG1LhkCQQHc97OyT[] = {
/* columns rows colors chars-per-pixel */
"78 91 254 2 ",
"   c None",
".  c #030203",
"X  c #0B0403",
"o  c #06060A",
"O  c #08070B",
"+  c #0A090D",
"@  c #09090B",
"#  c #180806",
"$  c #0C0C14",
"%  c #0E0E18",
"&  c #06091F",
"*  c #120E15",
"=  c #130F19",
"-  c #0F121A",
";  c #0C1015",
":  c #131116",
">  c #12141C",
",  c #1A151B",
"<  c #19181C",
"1  c #15120D",
"2  c #230B04",
"3  c #2B0F04",
"4  c #260503",
"5  c #3B0401",
"6  c #370807",
"7  c #2C1105",
"8  c #291609",
"9  c #321305",
"0  c #3B1C07",
"q  c #381708",
"w  c #2A1B19",
"e  c #351816",
"r  c #350C13",
"t  c #26231A",
"y  c #36231B",
"u  c #3C2C14",
"i  c #161621",
"p  c #151B22",
"a  c #1A1C24",
"s  c #1E1D2A",
"d  c #161D2A",
"f  c #121635",
"g  c #201F2B",
"h  c #351920",
"j  c #1A222A",
"k  c #0E2A31",
"l  c #152D36",
"z  c #1D363E",
"x  c #23232C",
"c  c #262427",
"v  c #242532",
"b  c #252933",
"n  c #2B2935",
"m  c #2B2D3A",
"M  c #272837",
"N  c #322E3B",
"B  c #2D3139",
"V  c #34333E",
"C  c #353733",
"Z  c #392E22",
"A  c #480904",
"S  c #570405",
"D  c #471905",
"F  c #531201",
"G  c #581B05",
"H  c #4C1914",
"J  c #670403",
"K  c #7A0402",
"L  c #621D02",
"P  c #681E00",
"I  c #691418",
"U  c #432109",
"Y  c #4A2609",
"T  c #4C2808",
"R  c #532C0A",
"E  c #5D2F0B",
"W  c #5C2408",
"Q  c #5C320C",
"!  c #5F3A0D",
"~  c #482716",
"^  c #562615",
"/  c #4B3215",
"(  c #59381A",
")  c #642204",
"_  c #6D2300",
"`  c #682709",
"'  c #742501",
"]  c #752B03",
"[  c #792A07",
"{  c #63340C",
"}  c #67390D",
"|  c #6B3B0D",
" . c #6C330B",
".. c #713F0E",
"X. c #793306",
"o. c #6C2615",
"O. c #6A3814",
"+. c #753419",
"@. c #462932",
"#. c #6A3425",
"$. c #6C3C3A",
"%. c #74430F",
"&. c #7D440E",
"*. c #754A12",
"=. c #7C4B10",
"-. c #7B4614",
";. c #7C5314",
":. c #6B4611",
">. c #725031",
",. c #635921",
"<. c #1D3843",
"1. c #1B2149",
"2. c #293343",
"3. c #363442",
"4. c #3B3A4B",
"5. c #383847",
"6. c #323654",
"7. c #2E1A5E",
"8. c #413F4E",
"9. c #423E52",
"0. c #36465B",
"q. c #344654",
"w. c #3B5469",
"e. c #3D546F",
"r. c #444355",
"t. c #4B4A5C",
"y. c #494759",
"u. c #59595C",
"i. c #504C54",
"p. c #6E4F49",
"a. c #4C4D62",
"s. c #514E62",
"d. c #565669",
"f. c #5C5B72",
"g. c #47586D",
"h. c #63637B",
"j. c #666A75",
"k. c #707178",
"l. c #64656E",
"z. c #850301",
"x. c #940101",
"c. c #951B01",
"v. c #B60301",
"b. c #AD0201",
"n. c #85350A",
"m. c #88361A",
"M. c #8E350F",
"N. c #883826",
"B. c #A53537",
"V. c #C60200",
"C. c #D40200",
"Z. c #88430A",
"A. c #934B0E",
"S. c #874B13",
"D. c #954A15",
"F. c #845312",
"G. c #8D5A13",
"H. c #8B5614",
"J. c #925D14",
"K. c #995916",
"L. c #925409",
"P. c #A6431D",
"I. c #A15E16",
"U. c #A75009",
"Y. c #946214",
"T. c #9C6816",
"R. c #936A19",
"E. c #A26819",
"W. c #A87318",
"Q. c #B87A1D",
"!. c #B36707",
"~. c #8F492B",
"^. c #AA4A2A",
"/. c #B75636",
"(. c #AC5231",
"). c #926524",
"_. c #A87038",
"`. c #CA6E1E",
"'. c #8C5251",
"]. c #B85648",
"[. c #906E59",
"{. c #B26952",
"}. c #8F7468",
"|. c #AF7074",
" X c #CA6444",
".X c #D87558",
"XX c #D4684D",
"oX c #E3775C",
"OX c #DA7461",
"+X c #DE6D6E",
"@X c #CF4B4B",
"#X c #888827",
"$X c #B38A2A",
"%X c #B0A129",
"&X c #C58A17",
"*X c #C49934",
"=X c #C68E24",
"-X c #D1AA38",
";X c #BBC12D",
":X c #C4C92D",
">X c #AF8944",
",X c #D8BA42",
"<X c #C3B042",
"1X c #D98E6D",
"2X c #E49070",
"3X c #DA946B",
"4X c #DBC74B",
"5X c #D2C850",
"6X c #E4CC4B",
"7X c #E7D651",
"8X c #F3E659",
"9X c #3D3CB4",
"0X c #4733AC",
"qX c #585892",
"wX c #546B8B",
"eX c #576E8E",
"rX c #6E6E88",
"tX c #6A6A86",
"yX c #71728D",
"uX c #757B84",
"iX c #667B9D",
"pX c #7A7A97",
"aX c #6F7D81",
"sX c #767FA2",
"dX c #767AD9",
"fX c #6458CB",
"gX c #8A798D",
"hX c #B17597",
"jX c #738390",
"kX c #7487AA",
"lX c #6F80E4",
"zX c #AB8590",
"xX c #8688A6",
"cX c #8795BA",
"vX c #9497B0",
"bX c #AEADBB",
"nX c #9FA48D",
"mX c #D3AA88",
"MX c #E8B48A",
"NX c #E5B58E",
"BX c #CDA692",
"VX c #EAC496",
"CX c #8795CD",
"ZX c #98A9D3",
"AX c #AAB1C8",
"SX c #A4A3E7",
"DX c #B9C1CC",
"FX c #CACCD2",
"GX c #CBC8D1",
"HX c #D7D6DD",
"JX c #CFD5DD",
"KX c #E7D7D0",
"LX c #D5D9E4",
"PX c #EAEBEC",
/* pixels */
"                                                                                                                                                            ",
"                                                                                                                                                            ",
"                                                                                                                                                            ",
"                                                                                                                                                            ",
"                                                                                                                                                            ",
"                                                                                                                                                            ",
"                                                                                                                                                            ",
"                                                                            2 2                                                                             ",
"                                                                            U D                                                                             ",
"                                                                          2 { { 2                                                                           ",
"                                                                          2 ;.;.2                                                                           ",
"                                                                U | 7 # 7 R J.T.*.q U | 3 j l l                                                             ",
"                                                              2 0 Q Y 0 D | Y.W.W.T T } 0 t j l                                                             ",
"                                                                  9 Y.H.| E J.W.W.=.} E | U 2   l l                                                         ",
"                                                              2 2 3 %.J.J.Q J.T.F.Y.=.E ..} R 2 0.e.                                                        ",
"                                                              0 Y Q } =.F.} F.H.%.J.=.E } | { U 5.0.                                                        ",
"                                                  _ _ _ D 7 9 } H.T.} E { %...| ....} E { Q { | q 2                                                         ",
"                                                ' F 3 3 T %.Y.E.G.} | | %.T.%.{ ..{ } %.T.F.Q 9 2 2                                                         ",
"                                                Z.W 2 U *.J.G.G.=.Q F.G.G.G.| { ..} =.G.:.R 0 2 D U                                                         ",
"                                                I.*./ { F.G...} { } E.W.Y.| { } &.| F.Y.0 2 2 9 { R 2                                                       ",
"                                              ] K.*X5X0 3 0 | 0 U %.E.F.Q Q | F.E.| } %.| 0 9 | ..R 2                                                       ",
"                                              F A.-X7X .9 3 0 2 R J. .&.F.Q F.J.F.{ E | Y.%.R } G.=.R 7                                                     ",
"                                              A S.*X,X] D 9 2 9 Q F.G | ;.} Y.Y.Q +.-.%.F.F.&.E G.J.=.U 9                                                   ",
"                                              A S.Q.Q.D L ) 3 Q R 7 O.~ q | Y.F.9 ]. XY.q *.Y.E | F.W.=.Y 2                                                 ",
"                                              _ X.A.K.A ~./.) D 7 w gXqX7.9 } &.[ ^ H Y H.! Y | { =.W.E.! 2                                                 ",
"                                            ) n.' K.$X9 N.(.' 9 9 ( AXdX9Xp.( +.^.N 9.[.K.T 3 T U R *.J.Q 2                                                 ",
"                                          5 G H.X.$X5X8 G n.X.q D D.KXSXdXNX>.#.OX0XCXKX~.D 2 3 2 2 3 } Y 2                                                 ",
"                                          5 6 w S.Q.=X] F ` Q.W F n..XmXVXVXNX3XOXfXlXAXOX#.9 }                                                             ",
"                                        . # # +  .K.E.G F X.=X` A L ^..X2XVXVXNX2XhXgX[.(.+.7 U                                                             ",
"                                        . $ $ @  .A.D.F  .K.&XW 5 5 ' ^..XMXMXMXMX.X^.[ L     2                                                             ",
"                                        . $ % , W.Q.K.' *X4XE.G 4 X 5 L m..XoXoX.XP._ 5 X # 2                                                               ",
"                                          o O < <X*XE.-X-X=Xn.p.u.u.k.$.F o.m.m.o.q y @.o c N .                                                             ",
"                                          3 8 / 5X4X*X6X$XH.#.k.jXjXvXp.F F ' L 4 . x y.g r.t.a $                                                           ",
"                                          ' n.E.6X8X7X=X .e y.j.aXaXxX'.[ M.M.` . o x t.t.j.k.s.< o                                                         ",
"                                              l._.E.S.W 9 = a y.d.s.x d.zXXX^.) o 3.n < y.j.aXk.t.n . .                                                     ",
"                                              sX>.) F 4 # $ % n N n o 2.tXzX$.~ x n a $ n s.j.j.8.x O O o                                                   ",
"                                              cX@.5 5 X . o $ $ $ $ . & 1.sX6.M 8.* O % $ N r.r.a $ % % @ .                                                 ",
"                                              wX            o $ % $ . & f 1.tXh.@ $ $ % % > > > > % % % O .                                                 ",
"                                              wX              o $ a k.a.1.qXAXvXn > % % % $ @ $ % % $ O 9 W                                                 ",
"                                              iX              . o x FXyXM yXbXbXk.x $ $ $ O o $ $ $ $ e o.M.                                                ",
"                                              ZX              . o x GXj.. O 5.gXJXV $ $ o $ $ . $ $ 1 ].^.'                                                 ",
"                                            0.iXeX0.k       . @ $ x GX}.A A S '.HX3.$ $ $ O o   o 2 G U 7 #                                                 ",
"                                          w.e.w.w.w.w.    . o $ $ x GX|.x.x.K '.HX3.$ % % o .   . y '.u.u.u.                                                ",
"                                        l iXiX<.<.wXkXz ; o > % $ x GX+XC.C.x.'.HX3.% > $ o .   . 4.ZXLXPXJXeX                                              ",
"                                        l <.g.cXFXxX<.O . : 9.a $ x FX+XC.C.V.@XHXV v 4.+       . m wXB a.kXCX4..                                           ",
"                                          k w.ZXJXjXz k.C @ n t.h.gX|.B.b.C.b.].HXV 4.h.$       . - 2.2.i.}.kXm .                                           ",
"                                          k w.cXcXwXq.FXu.. o h.bXGXI S J b.K '.HXr.a.yX:       ; > j w.[.>Xg.l ;                                           ",
"                                              <.<.<.  : : $ $ @ y.vX, X X X X i.LXvXs.+ $ @ . o 0.iXcXa f.xX> q.g.                                          ",
"                                                      . 6 6 % $ s 4.@ o @ . . a d.8.x $ $ o # D '.gXkXvXxXeX0.m j                                           ",
"                                                      5 S S * % $ $ . O $ . o o O o @ % % + 2 [  X{.g.DXAXjXwXj .                                           ",
"                                                    4 v.x.S = % % $ o . . . $ $ . $ % % % $ e M. X~.* g.AXLXeXj .                                           ",
"                                                    # V.x.S > - % % $ o . . o o $ $ % % % 6 J ] o.N.{.BXbXZXCX2..                                           ",
"                                                  5 S K x.K r , - % % $ o . o @ % - - - % A K c.S o. X1XzXzXtXm                                             ",
"                                                . J v.4 z.v.K w > % % % $ o $ - > < t t > A K V.J G n.M./.].X                                               ",
"                                                . 5 z.v.x.c.`.~ - % % % $ . $ % > o.U.!.w = r K b.z.# _ n.n.                                                ",
"                                              . O # A x.I ^ *.#X;.^ = / %.o Q J.#X( O.;.#X,.G J x.J . G                                                     ",
"                                              . $ $ * S h j p %X$X[ Z F.L.X Z.&X;XC d C ;XT.[ S S 6 :                                                       ",
"                                              . $ $ o * > p p < , t :X,.X . X 1 c x v b B c < = * v r.$                                                     ",
"                                              @ f.rXf.$ o $ > > > < ,.t .   . o % p j B tXyXh.4.4.3.g O                                                     ",
"                                              @ f.yXtX3., o $ ; p b s $ .   . : 4.4.r.a.rXyXh.r.4.n @ .                                                     ",
"                                              . $ > b xXr.$ o o x t.t.x .   . V xXvXvXpXv p p p > $ .                                                       ",
"                                                o $ i m h.rX9.8.3.x x : .       x m 2.m > O . .                                                             ",
"                                                  o $ - r.d.5.3.v > > @ .       . + $ * q $.>.#.o.                                                          ",
"                                                    o $ - > > % $ % $ O .         . . # P {.MX1Xm.'                                                         ",
"                                                      . o o o $ % $ o .                 A [ /.MX(.' 5                                                       ",
"                                                              o o O q                     F m.2XXXN.5 P                                                     ",
"                                                              e y Z ) _                   D o. XoX(.F ] ]                                                   ",
"                                                              .X1XmX^ G '                 K.D.[  X/.' K. .5                                                 ",
"                                                            ' P. X1XH ` D.                E.S.F m.D.K.,X).5                                                 ",
"                                                          X.n.' m./.H.J.I.                A.Z.W G S.*X6X).F                                                 ",
"                                                        ' n.K.W W Z.7X*XD.                _ X.K.G ).8X=XL.'                                                 ",
"                                        . . . . .       ' Z.=X,X4X6X-X*.#                 # U &XK.$X7XO.) ]                                                 ",
"                                      a y.V V y.m a     3 W I.-X,X*X;.y O .               . 8 K.A._.mXy 3 q                                                 ",
"                                    @ x pXf.f.xXd.V , $ > w  .T.E.-., % $ .               . # ) ) p.pXM $ .                                                 ",
"                                  . M 9.v b m B b d.xXt.yXpXi.c , , = % $ o               . O : : > s r.M $ . . . .                                         ",
"                                  . y.tXa a a a x 5.r.M 5.4.v > $ $ $ 4.d.@               . o $ $ % % x y.f.3.a $ $ o                                       ",
"                                  . t.yXa > > p j a - $ $ $ $ $ > x m h.rX@               . @ s > $ % $ y.yXy.4.m > O o                                     ",
"                                  . m r.i % > p p > % % % % = - n s.xXtX4.o               . , y.s $ % % a b b rXrXa - @ .                                   ",
"                                    * b yXm $ - - - % $ $ a 9.tXs., x a :                 . x gXm $ % > p a a m 5.4.i o .                                   ",
"                                      a f.4.s $ $ $ > v 4.9.V d.r.. . .                     x f.5.s % i i a m q.t.s.y.v .                                   ",
"                                        . 3.4.a i i x r.yXtXo . .                             . 3.5.a p a M r.pXpXt.pXa..                                   ",
"                                          @ 3.xXs.h.yX< : ,                                     @ 4.pXs a.pXs s s i < $ .                                   ",
"                                            x r.n 3.r.+                                         . s a.3.r.r.$ o O O .                                       ",
"                                              . . . .                                           . o $ 4.v O . . . .                                         ",
"                                                                                                    . o o .                                                 ",
"                                                                                                                                                            ",
"                                                                                                                                                            ",
"                                                                                                                                                            ",
"                                                                                                                                                            ",
"                                                                                                                                                            ",
"                                                                                                                                                            "
};
