/* XPM */
static char *_c25b690febd4f85d8347addb148de5coAig1qj2F1dTD3DL[] = {
/* columns rows colors chars-per-pixel */
"91 91 162 2 ",
"   c #1E1D4C",
".  c #231F4D",
"X  c #221E51",
"o  c #1D234E",
"O  c #1E2353",
"+  c #1F2854",
"@  c #1F245A",
"#  c #1F2858",
"$  c #23234E",
"%  c #29244E",
"&  c #23294F",
"*  c #232554",
"=  c #292653",
"-  c #252955",
";  c #2A2A55",
":  c #24265A",
">  c #29275A",
",  c #25295B",
"<  c #2A2C5C",
"1  c #302C57",
"2  c #312F5D",
"3  c #2D315E",
"4  c #31315E",
"5  c #36395C",
"6  c #3B3B5F",
"7  c #262760",
"8  c #282762",
"9  c #262B62",
"0  c #2C2D62",
"q  c #2E2F69",
"w  c #312E63",
"e  c #302F6A",
"r  c #2E3164",
"t  c #2F3866",
"y  c #2E336A",
"u  c #2F386C",
"i  c #323365",
"p  c #383760",
"a  c #363963",
"s  c #393B63",
"d  c #33356B",
"f  c #38366B",
"g  c #34396C",
"h  c #3A3B6C",
"j  c #2E3571",
"k  c #2E3B70",
"l  c #343571",
"z  c #393570",
"x  c #353A72",
"c  c #323D70",
"v  c #343C72",
"b  c #333A75",
"n  c #363B74",
"m  c #333C74",
"M  c #363C77",
"N  c #383A72",
"B  c #393B75",
"V  c #3A3E74",
"C  c #3A3E76",
"Z  c #353979",
"A  c #363E79",
"S  c #373E79",
"D  c #383978",
"F  c #3B3F78",
"G  c #3D3F79",
"H  c #393F7C",
"J  c #37406F",
"K  c #3B416E",
"L  c #364074",
"P  c #3B4274",
"I  c #394177",
"U  c #36417A",
"Y  c #37417D",
"T  c #3A4179",
"R  c #3B427A",
"E  c #3C4078",
"W  c #3D437B",
"Q  c #3A437E",
"!  c #3C427D",
"~  c #3F477C",
"^  c #3F497F",
"/  c #41426E",
"(  c #414475",
")  c #424976",
"_  c #494C77",
"`  c #41477B",
"'  c #42467D",
"]  c #43457F",
"[  c #44467E",
"{  c #434A7D",
"}  c #494C7E",
"|  c #47507B",
" . c #3A3F80",
".. c #3C3F80",
"X. c #3B4281",
"o. c #3D4681",
"O. c #3C4784",
"+. c #3E4982",
"@. c #3D4288",
"#. c #3E4B88",
"$. c #3F518D",
"%. c #404682",
"&. c #424784",
"*. c #414883",
"=. c #404C83",
"-. c #454F83",
";. c #444884",
":. c #444B86",
">. c #444C84",
",. c #474C87",
"<. c #484C85",
"1. c #494E85",
"2. c #414789",
"3. c #464D88",
"4. c #454D8A",
"5. c #454E8C",
"6. c #474F8D",
"7. c #444C8E",
"8. c #484E89",
"9. c #494E8A",
"0. c #494F8D",
"q. c #465085",
"w. c #4A5185",
"e. c #4E5A87",
"r. c #45518B",
"t. c #4A538C",
"y. c #4A538D",
"u. c #49518F",
"i. c #47598E",
"p. c #4D598D",
"a. c #51568C",
"s. c #525A8D",
"d. c #585A8C",
"f. c #464D91",
"g. c #4A4F96",
"h. c #465591",
"j. c #485291",
"k. c #4B5692",
"l. c #4D5792",
"z. c #4A5396",
"x. c #4E5A94",
"c. c #4E579A",
"v. c #4E5B9A",
"b. c #505692",
"n. c #525B95",
"m. c #585D92",
"M. c #535D9A",
"N. c #585D9A",
"B. c #4F619A",
"V. c #556196",
"C. c #5A6297",
"Z. c #55629C",
"A. c #5A639D",
"S. c #5D689E",
"D. c #616C9E",
"F. c #555EA0",
"G. c #585FA1",
"H. c #5664A2",
"J. c #5964A2",
"K. c #5D69A4",
"L. c #6063A1",
"P. c #606AA2",
/* pixels */
"G f * < :.j.Q b M V M F F F G B 0 r d x x D d * : ,.l.m 9 y T T Q ! S V V B B V V d d < O - +.j.X.n d y i V T d y l H H H ..F N 0 * < 0.z.O.c g x Z Q T T T b y r g n Z M u * 0 8.u.v ",
"d w * < %.3.S y d d d i d f f r : : i f d l w * - E 3.y : < f i i i y d d d d d d 0 : * * , ^ 6.S d 0 : : i i : * < d l l l l f 0 = < %.6.Y u i d d d i i i 0 : : r l l d 0 * < ' ,.u ",
"d i * , *.3.F d d d d 0 < i f i 0 0 f f d l w * , ` 8.l 8 0 i i r r r d d d d d d 0 8 < * - ^ 6.M d i 0 0 f f : * < i d d l l f w = < ,.6.T t i i d r < i f 0 0 0 i d l d < * < [ 1.g ",
"d i * , *.3.T d d d d > * < i f f f f f d d 0 * - ` 8.V d g f i , = 0 d d d i d f d f i * - E 6.F d f f f i i < = < f i d d d f w * < :.0.F t f N f - * r f f d f g l l d < * < [ 8.I ",
"d r * < *.8.F d d 0 i < < < i d d d d i i d i = - ) u.V d i 0 0 , < r d d d u y 0 d f i - - ` u.n 0 i i i f i 0 < < r i d l d d i * < ,.8.F i i r 0 < , 0 d d d i 0 q d d < * < [ 8.x ",
"d r : < ' ,.V d 0 : < i i < * < d d 8 : 0 i i : , ` 1.d : * : , r i i i d d y 9 < r i r O , ` 1.y : , * < i h d i 0 : < r d d d 0 * < ,.3.T y 0 : : 0 d 8 : 0 i r : : 0 d r * < %.:.d ",
"i 0 : < E { V i 0 : < 4 4 < * < i i < * < i r : 9 ' 1.i * = * = i f i i i i 0 : : 0 i r O , ) } r * - * : 0 i i i r = , 0 i i f r * , { 1.V r < : : 0 0 8 : 0 i r : , 0 i 0 * 0 T :.y ",
"< ; = * i i < ; ; = = ; ; - & - ; ; * * = ; ; * = 0 i - * = * * < < < < ; < < = * = ; ; $ * 2 4 ; % % $ * < , , - - * = ; ; ; ; ; % ; 4 i < < ; * = ; < = * - < < * * ; ; ; = < 0 r : ",
"$ $ $   * *   . * . $ $ % o o o O O $ * $ $ $ . . * * O * * * * = - * * * * $ o o o $ $ $ $ $ $ $ $ $ $ $ $ * * O O $ $ $ $ $ $ $ $ $ . X X * $ o $ $ * o o o * * * * * $ $ $ $ * * O ",
"I I I I T T V ' V d f = - i I M l d d h V T V V I V x g g f h f = * i I L c c I I L I I I V g f g f f f i - * g V M g g g g c v I I I V T G T V g i : O f T v d d l l L I I L v g x g ",
"S.Z.Z.Z.H.J.H.J.n.0.:.0 < *.J.F.f.0.8.u.M.J.J.J.Z.p.w.1.1.1.1.{ < * { A.B.r.h.Z.H.H.H.J.A.M.u.3.3.3.3.8.,.0 , ,.J.F.i.r.r.r.v.Z.Z.A.A.A.J.J.J.M.u.=.9 @ 8.L.n.0.6.k.h.v.Z.J.H.Z.i.r.3.",
"p.u.u.u.k.z.z.c.u.*.! 9 : E N.c.#.*.,.*.6.c.M.l.u.+.E %.%.[ { I , - E n.k.o.+.k.k.c.z.k.r.u.*.+.*.&.&.:.V : O ^ M.c.*.o.E Q r.x.u.r.u.c.c.c.M.r.+.E < O :.M.k.*.3.O.+.6.c.z.z.u.E U E ",
"g r < 9 l l l x g d d : * V u.#.b g f d l l x d d 9 7 y l d g i - O I u.! : 9 d d d d y 9 0 i d g d l f i * o I q.*.l d 0 : 0 d y : < d l l n l i i - O I q.E l x l l l B l l d : 9 r ",
"f r = * d d l d d d d : * v 3.o.y i i i f d d f i : : 0 d d f d , * V 1.V : > f d d f 8 = : r i i i i i a - & K q.E d i < : 0 f 0 : , i f d d d i r * O J } E g d d d i d f d d : : r ",
"f i * * d d d d d d d : : V 3.O.j d d f 0 < 0 i f i 0 i f f i d , : V 8.E r 0 i f 0 : 8 r r < < r i d i i - * I 1.' d i i 0 i f 0 = < i i d i d d i * O I w.E d d f i < < 0 f i i r f ",
"i r : : d d l d d d d : : V 3.&.l d d g < O < f f f f f f f f i : : V u.*.i i f i 9 O 0 f r * O 0 f d d f , : I 1.' d f f f f f r * * i i i i d d d : O V 1.' d d g i < * < f f i i f ",
"i d 0 0 0 0 i d f d d : * N 1.*.d i < < < < < < < i i r < 0 i i , * V ,.T < ; < < 0 0 < < - * * r i d d f : * I 1.` 0 < < < i f i < < < < i i i f d : @ I 1.! d d 0 < < < < , 0 i f < ",
"f d d d < : < i i g r = = f 1.' d i = = 0 i < * , i i < = < i i , * I 1.I = ; * * 0 f 0 * * $ - 3 i d d i : - ( 1.I : * * = < f i i i - - r i i f i = : T 1.' l f = - r r 0 * , i i < ",
"i i i r , = < i i f 0 < ; i ` V r < = = < r < * = < r , * , r r , * f ) h * % % $ < r < * $ % * < 0 w i 0 = = f ` V : = = : < f i r 3 * * < i i i r = * g I V w w > : < < < = = < < , ",
"* * * * * * - = = - * * * = : : : ; $ * * - - = * * - * * * , - * * , , = $ % % % * = * * $ $ o * = > ; = $ $ * < * * * * * = = = = - * * * = = = = * $ - - , * * * * = - = = = = = = ",
", - % * , : : * * * = - = : : : * = ; : : * * : * : - - : : : * : , : < , = * * = * : * $ $ + + * * = * = - - * , * - : , , , * * O O , : : : : = = : , * : : , , = = : : * * : : - , ",
"' h * , ,.l.3.o.' E %.8.l.k.k.r.+.*.E E ' [ d : 9 *.u.=.o.*.u.r.u.u.*.E ' ' ` ` ` ` ' f - < =.k.3.%.%.E *.w.u.u.u.u.p.p.p.p.,.' g : < -.u.=.E E E %.r.k.u.l.3.%.' E ' %.' g O 9 -.u.q.",
"8.I * < b.Z.k.3.u.8.u.M.J.J.J.n.3.3.r.3.:.1.V < 0 u.J.k.r.k.Z.M.Z.Z.p.3.,.,.1.1.u.,.1.g * < k.F.j.8.8.3.u.M.A.Z.Z.Z.Z.N.Z.N.c.8.V : 0 n.Z.l.3.3.3.j.M.F.N.Z.n.u.r.,.:.6.3.h O 9 x.Z.i.",
"! g * < r.c.*.Q T T E :.:.:.:.' x x T Q F T d : < ,.n.E b S 3.:.*.3.E T T F T ! ! n x i = < r.x.*.T V x V -.1.E F ' =.=.*.*.%.! i : < u.l.3.Y Q G %.3.,.,.-.' v v V Q  .! g O 9 u.p.I ",
"d r * < *.6.S j d d d x l d d e : : y d y i 0 : < ^ 3.y @ , d d d d y d d d y d d 9 : : * < =.r.Q d < * : f d < : < y j j l d l 0 * < -.u.Y j j d d g h i i 0 : : y l l l 0 O < ,.,.y ",
"d r * , *.3.F l l d d i i d f d 8 0 d d d f 0 = , E 1.d 8 0 i d d y d d d d d d d q : : * ; ' r.S f i < < i f > = < i d d d d f i * < { ,.S y d d d i i i f w < < i d l d < * < [ ,.d ",
"d i * , %.8.F d d d d > = < f i f d z d d i < = : ` 1.N f f i d : : 0 i d i d d d d i < $ - E r.F d f f i i i < = < d d d d d f w * < { 1.S y d g f > = w f f d f f d l d < * < [ 1.V ",
"i i * , %.8.V d d y i < = < i i f d d w r i i = : ` ,.V i r i r : : 0 i d i d d i d f i = - ' u.F d f i i i i < : < d d l l d f i * < { ,.V y d i w < = 0 d d d i d d l x < * < [ 1.V ",
"i r : < o.,.V d r : < r r 0 , r i i 8 < r i r : : E -.g , = , < r i r i d i y 8 < r i 0 = < ' ,.y : < : < f d d r 0 : 8 d d d f i * < { 1.T u 0 : : 0 i 0 : 0 d d < 9 y d r * 0 ' ,.d ",
"d 0 : < ^ ,.I u r * , i i < * , i i > * < t r : 9 ^ 1.i * - * = i f i i i i y < : 0 d r * < { -.r * = * : i f d d 0 : < r r i f < * < ,.,.I y 9 : : 0 e < * 0 i r : : 0 y r , 9 E -.i ",
"< < * = i i 3 < < $ % ; ; - o - ; ; % $ ; ; ; = ; i h < * * * = < < < < ; < < ; * ; 2 ; $ ; p s ; - & $ $ ; 2 < < < * = ; ; ; ; ; $ - p h i < - * * < < - * - < < * = ; < < * = i a < ",
"* * * o * O   X * * $ % * $ o O O $ $ $ % * $ * * = * * * * O O * * * * $ * * * * $ * * $ $ % $ $ $ $ $ $ % * * O O $ $ $ $ $ $ $ $ % $ * * * * $ $ * * * o O O * * $ * * * * * * O O ",
"g g g u i y d g i r r = * 3 g u r r i r i g i i i r r r r r t r , * r g u r r g i i i f i i r r r 0 r r r * * i g d r r 0 0 i i f f f i g d g i r 3 * O r g u r r r r i i f g i r r r ",
"Z.Z.V.v.Z.v.M.M.u.=.*.9 : ` Z.c.6.:.8.3.k.M.M.n.n.r.*.*.,.-.-.) , * ~ n.k.#.r.v.M.M.M.M.M.x.3.=.=.=.=.,.{ < : :.M.c.3.*.*.,.l.M.Z.Z.n.c.M.M.M.l.3.E 9 @ ,.n.b.6.3.3.3.n.n.n.M.n.3.*.:.",
"n.n.M.v.v.v.v.M.l.*.*.9 , ' N.M.f.:.8.3.k.c.v.v.v.r.=.=.*.,.-.) , O ~ M.c.#.r.v.v.M.M.M.M.x.3.=.=.3.#.3.' < : :.M.c.6.3.3.3.x.M.c.c.v.v.v.v.M.h.3.' 8 O ,.N.b.6.3.3.3.c.M.M.M.n.3.=.=.",
"V g d y M S S T I x x - & h u.#.Z n V n F H Q T v r r l n n v g : * I p.*.9 y U M T V x i i x V v n M g f - * ` u.*.n d y 0 d V x r u M F F Q M v f * o E u.=.M n n x T T F F V r r u ",
"i < * * d d l d d d y * * h ,.o.j u i d i d d i r : : 0 d l i r , * h ,.F : : i i g g 0 * : i i f i i i r - - I ,.' d 0 < * 0 f 0 : : i d d d i i i - O I q.E i d d i d d d i r * * 0 ",
"f i * * d d l d d d d : : v 3.o.y i i f 0 8 0 i d i 0 d d d i i , = I 1.! 0 w i f 0 < < r 0 < < i i f i i , * I ,.' d d r 0 i f 0 : : i f d d d d d = O I -.E d i f f i 0 0 f i r r i ",
"i r * * i d l d d d d : : V ,.o.j d d i < : < f g f f d d i i i , * V 8.' d i f f < O < f i = * r f d i i , = I 1.' f i f f i i 0 * : i d d d d d d : O I w.T d d h i < : < f f i i i ",
"i i < < 0 y d i d d d : : N 8.&.j d d r < , < < r i i i 0 i f i , * V w.E < < 2 0 < < < r < = * 0 f f d i < , V 8.' i r r r i f i < < r r i d d d d : : T 1.T d d d 0 < : < 0 i i f r ",
"i i i i < : 0 i f f i : > N 8.%.l d > : < i < * , i i < : < i i , * V -.I = = * = r i 3 = * - * 3 f f f ( h i ' 1.T : * * * < f i i i , : r f d d d : * T 1.' d f : : 0 i 0 * < i f < ",
"i i i i , * < i i i i = = f ,.' i i > = < i 0 * = i r , : < i r = * h ` h * % % * < i < * * * * ; i i ( ( s h { { V = * * * < i i i 3 * * < i d d i > * V 1.I d w * = < 0 < : < 0 r = ",
", , : , * * = < = , ; $ * ; 0 0 , ; $ * = < , < - , - = * : < , * * < r , $ % % $ - < - * * * * * * * p s 5 s a < < * * * * = < = < < * * * , < , : ; * < 0 < : > * = : , , * = , , = ",
"* * * * * - * * O * = * * * * O O * % * * = < i * = = * : : * * * * * * * * * % % * = * $ $ * - < < * - s s 5 ; O * * * * * * * O * * * : : * : : * = * O * * : = * * : * * * * * * * ",
"V i = < I *.T M V V I ` ,.:.*.E M I I V I ) h p < ` w.E I ' q.' *.-.' I v I E ) I ` E i * < } w.-.{ ) E ` w.=.=.q.,.-.} } { ) ` g - , E *.Q T V F ! *.*.+.=.^ L v v V V I i O < ` { E ",
"8.V : 8 p.Z.j.3.u.,.u.n.A.G.J.n.3.r.3.8.m.d._ p r C.S.s.e.V.P.S.J.P.Z.p.u.p.n.s.u.s.s.I * a C.K.M.p.e.e.p.A.J.J.K.K.D.S.S.S.m.m.) ; r n.J.k.q.,.3.z.N.Z.Z.Z.c.r.q.=.,.3.,.J O < p.Z.u.",
"%.h * : u.M.6.E *.' ,.u.u.j.u.,.T T o.:.u.} / a g m.M.q.w.s.V.p.n.n.w.w.1.,.u.1.u.,.,.h ; s s.M.p.q.| ) } m.n.n.u.s.m.n.M.a.a.a.( * 9 n.F.3.^ ^ &.2.0.j.u.l.3.E I E %.%.%.g o < u.v.+.",
"d r * < ,.r.F y d d i x x l d y : 9 y l T I h 3 r w.u.g i h I I V E I T I V T g T d i r ; i w.u.o.I h 4 3 ( V h < h I v T V ` [ i * r :.6.S u d d q l l d d y : : d l l l r * , ' r.u ",
"d i * , ' 8.F l d d d i d d d q : : y d l ( h ; 3 w.u.i 0 f h K a f I I V V T g V y i r 4 a 1.u.! I h < < V h h < p V v V x V ( h ; a 8.6.S r i d d i f d d 0 7 9 d y j y r * < ' +.y ",
"d r * , ' 8.V d y i u , : 0 f f d d d l d f < * < ' ,.V f f i i ; - i f d d d d d d i < = ; ' u.F d f i i f f < * < i d x x d f i % ; ,.6.S u d N f < , r f d d d d l l d 0 = 0 ' ,.V ",
"f i * , { 1.V i i i i > = < i f f f d d d h < * - ' ,.B f f f i * = 0 d l d f i d f i 4 = ; [ 8.B d f d d d d < * ; i i d d f f 4 $ ; { 8.I t i d r , * < d d d i d l l d < * 0 { 1.V ",
"i r * : ' ,.V i r < < < < < < < i i 0 9 r i r * , *.u.d < < < < < 0 w d d d r 0 8 d f r * < ` 1.l 0 < : 0 d i i 3 < < 0 d d i f r * < -.,.T u 0 9 < < < < , 0 i r < 9 y d r * 8 ' ,.x ",
"i r : < ' =.L u r : , i i < = - i i < O r i r # 7 E w.i * = * : i i i i i i r , : 0 i r * < { w.r O * O : r f i i r : < r i g g r O , =.,.T y 0 : : r f < * < i i = , 0 u r O < ' ,.d ",
"< ; * < h I i 3 < * = ; < , * , 3 3 = * ; 3 < = : h ) r * = * ; 2 2 w w w 2 1 = = < 2 ; $ ; h / ; $ $ $ = < r 0 0 0 * ; < 2 4 4 ; * - K I f < < = = 0 i , * < 0 < * = ; 2 ; % = h I r ",
"; = $ * ; - * * * $ $ = ; = O # : * = $ $ % * = = = = = * O * * = = = * * % % % * = ; = $ % = = = % * * * = : : : * * * = ; * * * $ $ $ * = = * $ * : : * O : : = * $ = = $ $ $ ; - - ",
"0 < < 9 0 9 < < < < , * * , 9 9 9 < < 8 < < < < 0 : , < < < < , * * , 8 < , - < < 0 8 < < < < : < < 8 < , O * < 8 < < < , < < < < 0 < < 0 0 8 < - * : : < 0 9 9 < , : < < 0 0 < < < < ",
"x.p.x.k.z.h.k.k.r.+.E 0 * I a.u.%.' [ %.6.c.c.k.l.+.E ' ' [ [ ( < - ` c.u.+.+.u.k.c.l.x.x.u.*.+.+.E *.` I , O ` a.u.o.E I o.r.p.p.p.i.i.z.c.c.0.*.I < O ` a.1.,.*.*.o.u.x.l.l.u.*.*.*.",
"Z.Z.Z.Z.H.H.H.H.c.3.E < * E Z.M.6.8.1.j.v.H.H.Z.Z.i.,.,.1.1.w.} < - ' F.c.3.h.Z.H.H.H.J.J.M.u.r.r.r.3.,.` , O 1.A.M.6.r.r.r.v.A.A.Z.Z.Z.Z.H.H.l.r.-.< o 1.C.n.u.3.r.r.c.Z.Z.A.M.u.r.3.",
"' I V V o.o.o.*.E T V < - I l.f.X.Q T F o.*.%.%.E g d V V V I h * $ E l.=.y g E E o.%.T V V G T T T T E I - O ` b.0.I v g i I ' E v L ^ o.o.*.E I v : O E p.8.! F F M E *.' ' E g g v ",
"i < * * r y d i d d d , * h u.O.j y i d d d d d r < : 0 d d d r * * V ,.I O * r d d d < * : i i f i d u t - * K -.' f < = * < i < * * r i f f i i i - O L ,.E d d d d f f d f r : * < ",
"i i - = r d d i d d y : : V 3.*.l d i i r 0 d d i 0 < 0 d i d i < * I 0.T < 0 i i r 0 0 < < 0 < i i i i i - - I q.E d i 0 8 i i < * , i i f f i f i * O I q.E d d d f d 0 y d d 0 8 i ",
"r 0 * = i d d d f d d : : V 8.%.d d d f < = < d i i i i d d f i , * V 3.E y i i f < * < i i : * w f d i i : - L q.E d i f f f f 0 * : i i f i d d i * O I q.E d d d y 8 : 8 d d i i i ",
"d i : , r d f f i i i : : V 8.%.y d i w < : , r i i f i r d f i - * V ,.E r i 4 i < : < i 2 : * w i d i i < : V 1.' i i i i i f i : : i i i d d d d : @ I q.E l d f r < : < 0 i i i r ",
"x d i 0 < , 0 i i f i : : B 8.%.l d 0 : < i 0 : , i f 0 : < i i = * I w.I , < ; , r i < ; , - = 2 i i g i , - V -.T < * = * 0 h i i i 0 : 0 d d d d < O T ,.' l d < < r f 0 : < r i 8 ",
"d i f i , * < i i f i , : g 1.' d i : = < i r , , r i < : , i i - * h 1.I * $ $ * < i ; * = * * ; i i d i , - I -.V * * * * 0 f i i 3 * * 0 i i f i = * ` w.[ d d = : < r < - , < i , ",
"< < < , * $ - < ; < ; % % < i r < ; * = , < < * * < < = * = < < * * < r < * % % % ; < ; * $ * $ ; ; < < < * $ < r 0 * * * * ; < - < ; * * - < < < > = * < i 0 < < * * - < - * * < < = ",
"* * * * * * * * * * - $ $ * * * * $ % = * * * * O * * * * * * O * * * O * * % % * = * = * % * O - - * * $ $ $ o - * * * * = = = * * $ * * * * * = * = * O * * : = * * * * * * * * * * ",
"i 0 * * u M y y r t i g g g l y u g i i r i 0 : : g v g u y l g v v u y u i i i r r i < * * g k y t t t t g g g v l l l d x g u < O - g l g t t u i x g u L v y r r y d u < O , g g u ",
"8.V , < p.N.l.,.,.1.8.n.M.M.Z.c.,.,.=.,.,.1.V : < u.Z.u.=.u.M.M.V.V.p.,.,.,.1.,.,.-.w.J * < p.Z.k.q.q.q.r.n.Z.N.Z.Z.Z.Z.Z.N.l.3.v - 3 p.Z.k.=.=.:.u.M.Z.Z.Z.x.r.,.-.,.3.,.I O < n.Z.p.",
"1.V = , u.M.u.*.,.,.1.b.n.n.n.p.+.^ =.,.,.,.h = , u.V.q.E ,.M.n.n.n.u.,.,.,.,.,.,.,.=.g $ < p.Z.h.=.` ~ { n.n.p.l.x.n.n.M.M.u.8.V O < p.M.r.+.*.:.8.n.n.M.n.u.*.E } ,.:.:.I O < p.n.q.",
"x i * , *.r.T l l d x V M n V l 9 9 g x d g r * < *.u.l 7 r M v v v g l x x x l g 0 , : * < *.r.Y g t : < h h r 9 r l M S S n x r * < *.u.E u g x l v v M M y 9 9 g n Z n t O < -.3.g ",
"i 0 * , *.r.T d i d d d d d d y : 7 y l d i w : 8 ' q.u # , i g u i d d d d d y d 8 @ : ; ; ' r.S u 0 O * r t : O , y y d l d d 0 * < *.6.H u d d d i u d y 0 : < r l b l r * < ' :.y ",
"i i * - ' ,.V i d g i < 0 r d d 0 q d d d f i < < ' u.g 0 r f f < < d d d d d d d q 0 < = ; ' r.S d i d r i i < * < i d l l d f w * < ,.0.F u i d d 0 , i f i 0 r i d b d < * 0 [ 1.N ",
"i i $ - ' 1.V d y f i = * < f f d d d d d i w > < ' u.V i i f i = : 0 d d d d d d d d r * ; ' r.b y d d d d f < : < i d l l d f w * < ,.0.F u i d d , * r i i i i i d l d < * < [ 1.V ",
"i r * , ' ,.V d y 0 r < < < 0 w f d q q y d 0 : < ' w.g r < < < < < i d d d d q 0 d g r * < ' r.b y 0 0 d d f < < < r q d d d f w * < ,.6.F u y d 0 < < < < i i i i d l d 0 * 8 ' 1.N ",
"i 0 : < ' 3.T d y : < d i < * < i i , # 9 t 3 # , %.u.i * * * - i f i i i d y 9 , r g r O : { w.y O , * , i f i i r : < r u i g < * < -.=.T u 0 , , r f < * 3 p r : 8 y d r : 9 ' :.i ",
"i ; ; < I I f i < = ; < r < = < r r , = ; 4 ; * - I [ r $ * * = 0 i i i i i < ; = < i < * ; K ( 3 * * * = r i i i 0 * - ; 4 4 p ; $ - ) ) g r < * < 0 i < * < i < = ; < 2 2 * < ( ` i ",
"= = $ $ < < * * ; % % - - * * * * * * * = % % % ; < < = * = * = = : : = = = = * * * ; % % $ ; ; * * * * * , , , : : * % ; ; * = $ % % ; > > ; * $ * = , * * : : : * = ; ; = = * < < , ",
", = - * , : * - - - * O $ * : : : * * : , * , , , * O * * * : * * * : : : : : < , , , * , O * * : : : : * * * : : : : = = = : * = = * * : : < : O * * * * : : # : : * = , : > : : : , ",
",.-.=.=.=.=.=.,.' I g , * f ' ' V v V T E *.3.=.+.T L v h V V f : * I =.o.U U +.+.=.=.=.=.^ T U U S M V g , O I ,.%.F M I F o.*.=.=.=.=.3.3.3.E L h , O I } ` V T S T *.,.,.,.*.L v v ",
"J.J.J.J.H.H.H.J.Z.i.=.< * ` A.M.0.8.u.r.c.J.J.J.H.k.r.,.1.w.w.} : O ,.Z.v.$.h.H.H.H.H.J.J.Z.k.r.r.r.u.w.{ < + w.A.M.6.3.u.r.M.A.J.J.J.J.J.J.J.v.u.' : O 1.Z.n.8.0.6.j.M.Z.H.J.A.u.u.q.",
"u.,.*.o.6.6.6.u.:.! F : O I M.g.@.X.E E :.u.6.3.,.I g T T E E I : O E x.r.M U q.q.r.,.,.' ' E E I E E ' I : + ` n.k.%.T T V %.1.,.' ,.,.8.0.8.*.~ I : O E n.u.%.! ! E ,.:.r.u.q.T M I ",
"f r : : y j d d d d d , - v 8.2.b l g g d d d d r , : y d i i i : O V ,.U @ , u d d u 0 : , r d g d d i u - + I ,.%.l r < : 0 g 0 * < r i d d i i i - O L ,.E l d d u d i i d y : # 9 ",
"i i : : d d d d d d d : * v ,.%.g i i f d 0 d f d < < y d d i i , * V 8.Q 7 8 y d d d 0 < < 0 r f d d i i : O L q.*.d r < : 0 f r * : i f d d d f i - O I ,.T d i d i i r i d f < : r ",
"f i : : i d d f f d d : : V 1.*.d i i f 0 : 8 f f i d i d f f i , : V 8.E y d f i 0 7 0 f i , * r d d i i : : I q.o.g f i i f f < * * i i g d d d i * O T 1.! d d d i 0 < < r i i i d ",
"d i : : y d i i f i d : : B 8.%.d d d i < : < i i f d i r r i i = * V 8.E d i f i 8 : 8 i r = * r d d d i < : M 3.%.f i i i i i 0 : < r q d d l d d : O F 8.' d d d r < , < r r f f i ",
"d d 0 0 0 0 r f i f i : : N 8.%.d d 0 < < r 0 < < i f 0 < < f i - = I w.T < < < < 0 r 0 < < - * 0 i d d d : : V 8.! < , , , 0 i i r 0 0 8 q l l d i : O ! 8.' d f 8 < r r r < < i f < ",
"f f f i , * 0 f i g i : > h 1.,.d f > * < f r : , i i < : < i i - * I 1.V * * * = < f 0 * $ * * < i d d i = * I 1.F : * * * < f i f r : : 0 d d d i = O T 8.' d i : : 0 i r * = i i , ",
"< < < < : * < < < 0 < = = 0 h g 0 < ; * < < , * = < < : : , < < * * t g i = = $ * < < < * * * * < 0 < < < = * r x y * * * * , < < < < = = < 0 0 0 < ; * i x i 0 < = = , < < * = < < = ",
"* * = = * * = = * * = * * = = , = * % * = - $ o o * = = : = = * $ * * : = * = $ $ = = = * * * * = = * * $ $ $ * : * * * * * * * * = - = * * * * = $ = * * * * * = * * * - - * * - - = ",
"s s s s s s s s a s s s s s s s a s s s s s a s a s s s s s s s s s a s s s 6 6 s s s s s a a a s s s s 6 6 5 s h s a a s s s s a s a s s s s s s s s s a s s s s s a a s s s s s s s "
};
