/* XPM */
static char *result[] = {
/* columns rows colors chars-per-pixel */
"63 91 248 2 ",
"   c #0B0B06",
".  c #0D0D09",
"X  c #060805",
"o  c #0D140B",
"O  c #0D1C0C",
"+  c #06180A",
"@  c #14140C",
"#  c #141B0E",
"$  c #1C1B0F",
"%  c #19160D",
"&  c #1D1C11",
"*  c #131914",
"=  c #0E1712",
"-  c #211E12",
";  c #281F10",
":  c #261A0D",
">  c #07230F",
",  c #17230E",
"<  c #0B2412",
"1  c #0C2A14",
"2  c #132B14",
"3  c #182513",
"4  c #0C3315",
"5  c #0B3B16",
"6  c #093717",
"7  c #173718",
"8  c #10350D",
"9  c #22260D",
"0  c #242214",
"q  c #2A2415",
"w  c #2B2A14",
"e  c #2D2A1A",
"r  c #272916",
"t  c #322D1B",
"y  c #332B14",
"u  c #2C3414",
"i  c #273619",
"p  c #35321D",
"a  c #3A351E",
"s  c #363819",
"d  c #29390C",
"f  c #153A24",
"g  c #153A2B",
"h  c #263722",
"j  c #3D3922",
"k  c #393724",
"l  c #2C3132",
"z  c #463917",
"x  c #533D15",
"c  c #423C23",
"v  c #443E2A",
"b  c #0A441A",
"n  c #08491B",
"m  c #17461B",
"M  c #06551D",
"N  c #1B5214",
"B  c #28461B",
"V  c #374619",
"C  c #305412",
"Z  c #286614",
"A  c #3A6718",
"S  c #2F7412",
"D  c #174925",
"F  c #0B5423",
"G  c #0A5B23",
"H  c #1B542B",
"J  c #175727",
"K  c #185C37",
"L  c #104C31",
"P  c #284A27",
"I  c #374326",
"U  c #255827",
"Y  c #395824",
"T  c #264737",
"R  c #255836",
"E  c #076323",
"W  c #0A6324",
"Q  c #076C26",
"!  c #0C6829",
"~  c #16672A",
"^  c #09772C",
"/  c #18782C",
"(  c #186835",
")  c #197739",
"_  c #0E7631",
"`  c #276628",
"'  c #346827",
"]  c #35742D",
"[  c #276A36",
"{  c #2C793A",
"}  c #387B35",
"|  c #297627",
" . c #17721D",
".. c #49461A",
"X. c #46581B",
"o. c #504F12",
"O. c #517012",
"+. c #65780A",
"@. c #464125",
"#. c #4A4425",
"$. c #4A442B",
"%. c #4A462A",
"&. c #534B28",
"*. c #485B22",
"=. c #5A5629",
"-. c #494832",
";. c #524C32",
":. c #5B5537",
">. c #4D5237",
",. c #625727",
"<. c #645B34",
"1. c #775423",
"2. c #486929",
"3. c #5B7727",
"4. c #546E2B",
"5. c #6B6232",
"6. c #766A35",
"7. c #6C6E29",
"8. c #433A72",
"9. c #48384E",
"0. c #324E52",
"q. c #1C7641",
"w. c #1D6C44",
"e. c #257C49",
"r. c #2A734C",
"t. c #365B6F",
"y. c #31676E",
"u. c #1D555B",
"i. c #59514D",
"p. c #7B7554",
"a. c #6E6A4C",
"s. c #544C6F",
"d. c #715577",
"f. c #496B75",
"g. c #596A64",
"h. c #3C2E71",
"j. c #85773B",
"k. c #8D6D2A",
"l. c #817A55",
"z. c #338513",
"x. c #08852E",
"c. c #0B8A33",
"v. c #19863A",
"b. c #079834",
"n. c #169437",
"m. c #2A872C",
"M. c #268736",
"N. c #38873C",
"B. c #369330",
"V. c #27A82C",
"C. c #4C9511",
"Z. c #6E8D12",
"A. c #54A512",
"S. c #478735",
"D. c #59983A",
"F. c #4F912D",
"G. c #6B912E",
"H. c #48A337",
"J. c #5BA73A",
"K. c #52B033",
"L. c #62AA3B",
"P. c #34D531",
"I. c #2DEC29",
"U. c #58C538",
"Y. c #1D8A43",
"T. c #1B9849",
"R. c #258848",
"E. c #249948",
"W. c #379A48",
"Q. c #278A56",
"!. c #2E9351",
"~. c #25A54C",
"^. c #27A857",
"/. c #3AA955",
"(. c #2BB259",
"). c #38B659",
"_. c #37AB4B",
"`. c #2E9763",
"'. c #36BB69",
"]. c #2FAC69",
"[. c #1EA757",
"{. c #529942",
"}. c #48BA55",
"|. c #4EB54A",
" X c #37C45D",
".X c #3BC667",
"XX c #36D677",
"oX c #2FCD6D",
"OX c #3CE27E",
"+X c #45C65B",
"@X c #4FCA52",
"#X c #67D144",
"$X c #44CB66",
"%X c #46D46D",
"&X c #49D273",
"*X c #51E379",
"=X c #90AB08",
"-X c #92B122",
";X c #968E64",
":X c #8E865D",
">X c #493A84",
",X c #2A6597",
"<X c #346EAA",
"1X c #2A5B91",
"2X c #554B91",
"3X c #685B91",
"4X c #557B96",
"5X c #51768B",
"6X c #71738F",
"7X c #6656B3",
"8X c #7068B2",
"9X c #566DAB",
"0X c #356FC4",
"qX c #7565C5",
"wX c #7C72C7",
"eX c #6D59C2",
"rX c #8C6F95",
"tX c #9B75A6",
"yX c #9476AA",
"uX c #A37BAF",
"iX c #837EC9",
"pX c #6C839B",
"aX c #5787A9",
"sX c #7A87A5",
"dX c #779AB8",
"fX c #6F8EAB",
"gX c #6991AF",
"hX c #39E783",
"jX c #31DC80",
"kX c #5B8CC2",
"lX c #899BB9",
"zX c #848EB1",
"xX c #AE85B9",
"cX c #8EA2BC",
"vX c #8887C8",
"bX c #939BC9",
"nX c #8F93CB",
"mX c #B98DC5",
"MX c #9BABC6",
"NX c #9CADC9",
"BX c #97A6C7",
"VX c #9FB1CB",
"CX c #8CA5C2",
"ZX c #A1B3CD",
"AX c #A3B7D0",
"SX c #CA99D5",
"DX c #D2A1DD",
"FX c None",
/* pixels */
"FXFXFXFXFXFXFXFXFXFXFXFXFXFXFXFXFXFXFXFXFXFXFXFXFXFXFXFXFXFXFXFXFXFXFXFXFXFXFXFXFXFXFXFXFXFXFXFXFXFXFXFXFXFXFXFXFXFXFXFXFXFXFX",
"FXFXFXFXFXFXFXFXFXFXFXFXFXFXFXFXFXFXFXFXFXFXFXFXFXFXFXFXFXFXFXFXFXFXFXFXFXFXFXFXFXFXFXFXFXFXFXFXFXFXFXFXFXFXFXFXFXFXFXFXFXFXFX",
"FXFXFXFXFXFXFXFXFXFXFXFXFXFXFXFXFXFXFXFXFXFXFXFXFXFXFXFXFXFXFXFXFXFXFXFXFXFXFXFXFXFXFXFXFXFXFXFXFXFXFXFXFXFXFXFXFXFXFXFXFXFXFX",
"FXFXFXFXFXFXFXFXFXFXFXFXFXFXFXFXFXFXFXFXFXFXFXFXFXFXFXFXFXFXFXFXFXFXFXFXFXFXFXFXFXFXFXFXFXFXFXFXFXFXFXFXFXFXFXFXFXFXFXFXFXFXFX",
"FXFXFXFXFXFXFXFXFXFXFXFXFXFXFXFXFXFXFXFXFXFXFXFXFXFXFXFXw.R.Q.'.oXXX'.!.FXFXFXFXFXFXFXFXFXFXFXFXFXFXFXFXFXFXFXFXFXFXFXFXFXFXFX",
"FXFXFXFXFXFXFXFXFXFXFXFXFXFXFXFXFXFXFXFXFXFXFXFXFXFX[ /.&X&X*X*XhXhXhXhXXX].e.FXFXFXFXFXFXFXFXFXFXFXFXFXFXFXFXFXFXFXFXFXFXFXFX",
"FXFXFXFXFXFXFXFXFXFXFXFXFXFXFXFXFXFXFXFXFXFXFXFXH W.$X$X%X*X*X&XXXXXXXXXOXOXOX'.FXFXFXFXFXFXFXFXFXFXFX&.#.FXFXFXFXFXFXFXFXFXFX",
"FXFXFXFXFXFXFXFXFXFXFXFXFXFXFXFXFXFXFXFXFXFXFXR ).$X+X/.%X&X@X$XXXXXoXoXXXXXXXXX$Xe.FXFXFXFXFXFXFXFXFX<.6.FXFXq FXFXFXFXFXFXFX",
"FXFXFXFXFXFXFXFXFXFXFXFXFXFXFXFXFXFXFXFXFXFXD }.+X$XoX X+X+X).E.^.T.[.T.].[.(.oXXX.X[ FXFXFXFXFXFXFX; $.<.5.y c ,.FXFXFXFXFXFX",
"FXFXFXFXFXFXFXFXFXFXFXFXFXFXFXFXFXFXFXFXFXFXM._.|.%X@X}._.E.{ ^ G _ c.Y.c.T.T.[.oX].`.FXFXFXFXFXFXc c c c &.<.5.&.FXFXFXFXFXFX",
"FXFXFXFXFXFXFXFXFXFXFXFXFXFXFXFXFXFXFXFXFX7 W._.@XU.L.H.) D 7 b 6 n n F M _ Y.v.[.T.'.q.FXFXFXFXFXt v q p p c j FXFXFXFXFXFXFX",
"FXFXFXFXFXFXFXFXFXFXFXFXFXFXFXFXFXFXFXFXFXm H.@XK.H.H.| D 7 r 7 2 3 4 6 6 F ^ v._ [.'.].L FXFXFXFXFXt c p p e FXFXFXFXFXFXFXFX",
"FXFXFXFXFXFXFXFXFXFXFXFXFXFXFXFXFXFXFXFXD Z A.K.C.B.m.m i 2 7 ` 7 i D 7 O > n M ! ].'.].K FXFXFXFXq j e k e FXFXFXFXFXFXFXFXFX",
"FXFXFXFXFXFXFXFXFXFXFXFXFXFXFXFXFXFXFX) (.Z m.z.z.m.J 7 D u , J U ~ 7 p % @ # O w.`.Q.Q.H < FXFX0 c e c 0 FXFXFXFXFXFXFXFXFXFX",
"FXFXFXFXFXFXFXFXFXFXFXFXFXFXFXFXFXFXW oXoX_ Z Z N m 7 , D , ; 3 U J s c - q & O ( e.w.K b e.D & c e &.5.k FXFXFXFXFXFXFXFXFXFX",
"FXFXFXFXFXFXFXFXFXFXFXFXFXFXFXFXFXFXn.oXoX~.` m 4 O m U H $ y q 2 h j j w t 0 O 7 H D 4 P P e c p h ,.v t FXFXFXFXFXFXFXFXFXFX",
"FXFXFXFXFXFXFXFXFXFXFXFXFXFXFXFXFX7 ~.oX(.~.~ N n O 2 ~ 7 q t & 0 I @.@.c p p o o < * h I h k k r.].0.v 0 FXFXFXFXFXFXFXFXFXFX",
"FXFXFXFXFXFXFXFXFXFXFXFXFXFXFXFXFXm M.~.n.W 5 4 2 2 , 7 y y - 3 k #.j p a e j & # e e h H P t R ].].`.-.FXFXFXFXFXFXFXFXFXFXFX",
"FXFXFXFXFXFXFXFXFXFXFXFXFXFXFXFXFXFXJ v.~ 2 2 > O 2 Y *.a 9 e I ;.@.j c a a e p e & 3 4 h k f Q.`.].`.;.FXFXFXFXFXFXFXFXFXFXFX",
"FXFXFXFXFXFXFXFXFXFXFXFXFXFXFXFXFXFXFX5 2 , 2 u x X.Y e : w :.<.%.a @.%.#.k p p & . O r @.2 ) Q.`.`.Q.>.FXFXFXFXFXFXFXFXFXFXFX",
"FXFXFXFXFXFXFXFXFXFXFXo.+.O.V FXFXFXFXFX# B A o.x t w j v a.l.<.@.c @.@.#.j p a 0 o - v r F Y.Q.`.`.r.-.FXFXFXFXFXFXFXFXFXFXFX",
"FXFXFXFXFXFXFXFXFXFX+.=X=X=X=XO.FXFX1 Z m.] V y t v k <.l.;Xp.$.c j p w e j @.j e # j a 6 Q ) Y.Q.e.[ -.FXFXFXFXFXFXFXFXFXFXFX",
"FXFXFXFXFXFXFXFXFXo.=X=X=X=X=XZ.V 8 m.H.B.Y ; e <.a.;.<.p.:X:.v a @.a e w p j a k t c & 5 M ! ) q.q.K -.FXFXFXFXFXFXFXFXFXFXFX",
"FXFXFXFXFXFXFXFXFX+.=X=X=X+.+.+.V ' v.V.M.l * i.a.l.l.:X;Xl.c a &.%.@.c j #.j c p j w z 9 b G ! ! ( H -.FXFXFXFXFXFXFXFXFXFXFX",
"FXFXFXFXFXFXFXFXFXZ.=XZ.o.V y y ,.*.B m./ * l p.l.;Xl.a.;.t t v %.%.c t j #.#.p k q u *.y 8 F W ! L P -.FXFXFXFXFXFXFXFXFXFXFX",
"FXFXFXFXFXFXFXFXFXO.=XO.% z 1.1.1...y M D FXa.a.-.t q 0 t v - % & e k c $.v #.t k e s X.w 7 7 J G 6 k v FXFXFXFXFXFXFXFXFXFXFX",
"FXFXFXFXFXFXFXFXFXC +.d : q ..1.*.s : n n FX0 e k v -.i.v <.v c e 0 0 - - 0 t p q j s V , 3 2 b D + t t FXFXFXFXFXFXFXFXFXFXFX",
"FXFXFXFXFXFXFXFXFX9 d   % % % s X.s q 5 b FXFX;.;.<.v <.v v v t t e q 0 e - q e - e s , $ d A 7 > FX;.$.FXFXFXFXFXFXFXFXFXFXFX",
"FXFXFXFXFXFXFXFXFXFXFXFX% % FXFXJ U t i b FXFXj ;.;.;.:.i.<.c t e q - - e e k e c V y r d O.A.C FXFX;.j FXFXFXFXFXFX* FXFXFXFX",
"FXFXFXFXFXFXFXFXFXFXFXFX  % FXFXn  .t y , FXFX;.c ; @ .     . @ % - q e q t r q y u V X.Z z.C.C.Z & & e e FXFXFXq &.t FXFXFXFX",
"FXFXFXFXFXFXFXFXFXFXFXFXFXFXFXFXFX7 0 q t m D 4 . X X     X X   X X X @ q t & t w X.G.Z.F.B.z.z.A l . * 0 a #.&.&.&.FXFXFXFXFX",
"FXFXFXFXFXFXFXFXFXFXFXFXFXFXFXFXFXFX3 e w C P m r & @ k -   . ; % . . @ e - . % V O.J.|.K._.M.z.Y - p ,.k.j.j.5.=.t FXFXFXFXFX",
"FXFXFXFXFXFXFXFXFXFXFXFXFXFXFXFXFXFXFX! J w w w -.p t ;.c e q v t ; - q e * * @ B S.W.^.).(.E.` @.5.j.:Xj.6.<.&.&.% FXFXFXFXFX",
"FXFXFXFXFXFXFXFXFXFXFXFXFXFXFXFXFXFXFXF F 9 ; 0 ; ; e e q e q e ; e - e 0 - 0 * 2 C m.~.~.E.H =.j.j.j.k.j.5.,.&.a FXFXFXFXFXFX",
"FXFXFXFXFXFXFXFXFXFXFXFXFXFXFXq.].T.FXFX$ % # < 4 7 # - : - e a q - ; t & 0 0 & o O m ~ ( U =.j.j.j.j.6.<.=.#.#.q FXFXFXFXFXFX",
"FXFXFXFXFXFXFXFXFXFXFXFXFXFXq.XXhXjXe.FX+ 4 6 Q x.^ F 2 * @ k &.e - t & o # @ . % , r 0 i =.5.5.5.6.6.7.,.#.#.t FXFXFXFXFXFXFX",
"FXFXFXFXFXFXFXFXFXFXFXFXFXFX_.hXhXjX^.!.M.H n x.c.x.^ G 5 $ w s w r e + O o o & s X.7...&.=.=.=.,.=.&.#.@.@.y FXFXFXFXFXFXFXFX",
"FXFXFXFXFXFXFXFXFXFXFXFX] L.@X+XoXoXoX&X.X(.K ^ b.x.Q Q ! 5 3 u u e 0 4 6 < o # 3 i s z @.&.&.&.%.&.&.#.a 0 FXFXFXFXFXFXFXFXFX",
"FXFXFXFXFXFXFXFXFXFXFXB K.#X#XK.K. X%X%X.X).( 6 E Q n 6 7 b i V u 9 + b M n 4 < # d A V e c #.&.&.@.c j Y O.7 FXFXFXFXFXFXFXFX",
"FXFXFXFXFXFXFXFXFXFXFX' #X#X#XK.V._.).(.(.~.{ L > > > + > 2 V X.V 3 + 6 n n n b 1 w A.F.A y a a a s 9 A A.C.Z FXFXFXFXFXFXFXFX",
"FXFXFXFXFXFXFXFXFXFXFXZ K.#XU.H.B.m.E.n.M.R.( D 4 J _ 6 > B ,.2.P 3 1 n ! _ Q G n < 2.F.O.B Y Y Y ' B C A.C.S FXFXFXFXFXFXFXFX",
"FXFXFXFXFXFXFXFXFXFXR _.z.H.K.B.m./ ) ) ( ~ H 4 ~ ~.^.M.5 *.6.4.P O 4 ~ ( ) ! F b < 8 B 8 i Y ] ] ' B C C.z.B FXFXFXFXFXFXFXFX",
"FXFXFXFXFXFXFXFXFXFXH M./ | |  .J K D L J D 1 4 v.~.^.E.D Y 3.7.Y D w.e.R.Y.) J F 6 5 f . P ] ] ] ' 8 N S Z 8 FXFXFXFXFXFXFXFX",
"FXFXFXFXFXFXFXFXFXFXS z.N n 5 m g 0.l 1 1 < + 5 v.T.~.~.( B *.4.[ q.`.^.^.^.!.( F 6 2 i V ] ] ] ] U , 8 C N FXFXFXFXFXFXFXFXFX",
"FXFXFXFXFXFXFXFXFXC A.C.S 7 & T t.0.g.t.+ X > ( v.n.E.M.J 7 {  X/.q.n.Y.Y.e.[ [ U Y =.3.4.S.] P ] f FXo N o FXFXFXFXFXFXFXFXFX",
"FXFXFXFXFXFXFXFXFXC A.A.Z f l 0.f.i.p.pX< + 4 ! / v.v./ V./ .XXXXXW.C ] 3.3.G.D.L.D.F.D.F.S.Y 7 { D FXFX8 FXFXFXFXFXFXFXFXFXFX",
"FXFXFXFXFXFXFXFXFXd C.z.B i 0.f.4Xf.a.pXh p 7 f J ~ W V.I.I.@X$X%X|.G.J.J.L.G.L.G.D.N.S._.W.3 O R D FXFX+ FXFXFXFXFXFXFXFXFXFX",
"FXFXFXFXFXFXFXFXFXFXd C + k 0.5X5Xf.f.4Xk ;.I i 8  .P.P.I.P.J.|.@X}.{.|.}.|.{.S.2.I B ] ] { FXFX2 FXFXFXFXFXFXFXFXFXFXFXFXFXFX",
"FXFXFXFXl r.].e.L FXFXFXFX& t.4XpXf.pXpXB =.:.h s 7.|.@XP.K.G.F.S.S.' N./.N.N.7 2 4 7 ' 1 1 FXFXFXFXFXFXFXFXFXFXFXFXFXFXFXFXFX",
"FXFXFXFXQ.jX&X'.R.2 FXFXFXFXt.4XpXfXdXaX%.:.%.2.G.k.{.}.2.S.N., i 7 P N.W.7 { D g D ] U D X FXFXFXFXFXFXFXFXFXFXFXFXFXFXFXFXFX",
"FXFXFX~ '.&X'.(.| Z.-Xo.FXFXf.4XaXdXdXpXI @.3.L.G...P W.7 7 N.[ U R N./.W.H R W.( R.N.H g FXFXFXFXFXFXFXFXFXFXFXFXFXFXFXFXFXFX",
"FXFXFX) (.(.].v.G.-X-XZ.u d 0.f.f.5Xy.0.B 7.G.S.r 2 5 [ K ( J !.R.W.).N.N.H H W.+XN.U K f FXFXFXFXFXFXFXFXFXFXFXFXFXFXFXFXFXFX",
"FXFXFX^ b.~.T.! 3.-XZ.X.X.3.D.{.{.4.,.,.D.D.4.Y 7 J ! W _ _ ) ( R K R R U ~ F [ W.K [ w.f FXFXFXFXFXFXFXFXFXFXFXFXFXFXFXFXFXFX",
"FXFXFXG c.c.Q n d O.C 9 s C P {.+X2.&.4.{.{.N.U U ~ E ^ ^ ^ ^ W ~ ( D F D D D U [ r.r.w.f FXFXFXFXFXFXFXFXFXFXFXFXFXFXFXFXFXFX",
"FXFXFXF n 6 6 X + , , % u i 0.r.}.T 0.} K 0.r.U W G E Q Q Q Q E Q ! G L D u.t.u.U e.Q.w.FXFXFXFXFXFXFXFXFXFXFXFXFXFXFXFXFXFXFX",
"FXFXFXFX. = X 4 m 4 . O u P 5X5X/.r.f.r.u.1XL Q ! G E E Q E E M L L y.9Xs.8Xs.l k 0.r.K FXFXFXFXFXFXFXFXFXFXFXFXFXFXFXFXFXFXFX",
"FXFXFXFXFXX X D D 1 FX= FX* 4X4XQ.}.r.W.y.0Xu.^ ^ Q E Q G K y.1X4X9XzXyXuXxXrXk #.R r.f FXFXFXFXFXFXFXFXFXFXFXFXFXFXFXFXFXFXFX",
"FXFXFXFXFXFXFX4 < FXFXFXFXFX4XdXf.W./.$Xy.0X,XL E E Q Q L 5XdXrXrXyXtXtXxXtXi.c k 0.P ..z FXFXFXFXFXFXFXFXFXFXFXFXFXFXFXFXFXFX",
"FXFXFXFXFXFXFXFXFXFXFXFXFXFXfXdXpXy.f./.y.0X0X1XK L ! y.gXpXrXl.6X6Xd.rXmXtXe h g D P ..o.z FXFXFXFXFXFXFXFXFXFXFXFXFXFXFXFXFX",
"FXFXFXFXFXFXFXFXFXFXFXFXFXFXfXdXdXfXaXr.w.,X<X<X0X0XaXdX6Xd.xXmXxXmXtXxXDXtX= . g D i @.o.x FXFXFXFXFXFXFXFXFXFXFXFXFXFXFXFXFX",
"FXFXFXFXFXFXFXFXFXFXFXFXFXFXsXMXcXdXdXf.L G u.,X<X<X4X6Xs.uXSXSXDXmXrXtXSXtXFXFX= FX& i s o.9 FXFXFXFXFXFXFXFXFXFXFXFXFXFXFXFX",
"FXFXFXFXFXFXFXFXFXFXFXFXFXFXdXNXCXCXCX5X< 1 6 g ( K l l.uXSXSXuXSXs.l.rXtXs.FXFXFXFXFXs d s q FXFXFXFXFXFXFXFXFXFXFXFXFXFXFXFX",
"FXFXFXFXFXFXFXFXFXFXFXFXFXFXdXZXCXMXNX6XFXFXFXFX6 6 FXs.uXDXuXd.tXFXFXs.9.FXl FXFXFXq X.B V 9 FXFXFXFXFXFXFXFXFXFXFXFXFXFXFXFX",
"FXFXFXFXFXFXFXFXFXFXFXFXFXFXlXZXNXNXVXpXFXFXFXFXFXFXFXFXs.tXuXuXtXFXFXFXFXFXFXFXFX< ..o.V m # FXFXFXFXFXFXFXFXFXFXFXFXFXFXFXFX",
"FXFXFXFXFXFXFXFXFXFXFXFXFXFXlXAXVXVXAXpXFXFXFXFXFXFXFXFXl 9.rXuXd.FXFXFXFXFXFX+ + V =.Y U 5 FXFXFXFXFXFXFXFXFXFXFXFXFXFXFXFXFX",
"FXFXFXFXFXFXFXFXFXFXFXFXFXFXlXAXVXVXVXsXFXFXFXFXFXFX+ FXFXFXFXFXFXFXFXFXFXFXFXb 8 B ` N 4 FXFXFXFXFXFXFXFXFXFXFXFXFXFXFXFXFXFX",
"FXFXFXFXFXFXFXFXFXFXFXFXFXs.lXZXZXVXVXsXFXFXFXFXFXFX1 FXFXFXFXFXFXFX    FXo b ) _ ) ^ < FXFXFXFXFXFXFXFXFXFXFXFXFXFXFXFXFXFXFX",
"FXFXFXFXFXFXFXFXFXFXFXFXFXs.CXMXVXVXVXsXFXFXFXFXFXFXM < @ o FXFX% 9 d 9 3 D n.n.n.~ FXFXFXFXFXFXFXFXFXFXFXFXFXFXFXFXFXFXFXFXFX",
"FXFXFXFXFXFXFXFXFXFXFXFXFX3XcXMXVXVXMXzXFXFXFXFX  5 ^ M 2 7 3 B V ..+.2.v.T.v.J FXFXFXFXFXFXFXFXFXFXFXFXFXFXFXFXFXFXFXFXFXFXFX",
"FXFXFXFXFXFXFXFXFXFXFXFXFX8XMXMXVXVXcXsXFXFXFXFX2 m b.x.~ N J / m.F.G.3.J J FXFXFXFXFXFXFXFXFXFXFXFXFXFXFXFXFXFXFXFXFXFXFXFXFX",
"FXFXFXFXFXFXFXFXFXFXFXFXFX8XMXVXcXZXcXzXFXFXFXFXM c.b.b.x./ / c.n.H.G.o.FXFXFXFXFXFXFXFXFXFXFXFXFXFXFXFXFXFXFXFXFXFXFXFXFXFXFX",
"FXFXFXFXFXFXFXFXFXFXFXFXFX6XMXMXcXAXZXzXFXFXFXFX! b.b.b.b.! | n.b./ ..FXFXFXFXFXFXFXFXFXFXFXFXFXFXFXFXFXFXFXFXFXFXFXFXFXFXFXFX",
"FXFXFXFXFXFXFXFXFXFXFXFXs.8XMXMXMXVXVXzXFXFXFXFXb x.b.b.b.W 2 M ! 5 FXFXFXFXFXFXFXFXFXFXFXFXFXFXFXFXFXFXFXFXFXFXFXFXFXFXFXFXFX",
"FXFXFXFXFXFXFXFXFXFXFX3XvXbXcXMXcXVXVXzXFXFXFXFXFXW b.b.^ b FXFXFXFXFXFXFXFXFXFXFXFXFXFXFXFXFXFXFXFXFXFXFXFXFXFXFXFXFXFXFXFXFX",
"FXFXFXFXFXFXFXFXFXFXFX8XbXMXMXbXcXZXVXzXFXFXFXFXFX5 G W b FXFXFXFXFXFXFXFXFXFXFXFXFXFXFXFXFXFXFXFXFXFXFXFXFXFXFXFXFXFXFXFXFXFX",
"FXFXFXFXFXFXFXFXFXFXs.nXZXZXNXNXcXZXVXzXs.FXFXFXFXFXFXFXFXFXFXFXFXFXFXFXFXFXFXFXFXFXFXFXFXFXFXFXFXFXFXFXFXFXFXFXFXFXFXFXFXFXFX",
"FXFXFXFXFXFXFXFXFX2XwXnXNXNXNXNXZXMXNXzXs.FXFXFXFXFXFXFXFXFXFXFXFXFXFXFXFXFXFXFXFXFXFXFXFXFXFXFXFXFXFXFXFXFXFXFXFXFXFXFXFXFXFX",
"FXFXFXFXFXFXFXFXFX2XqXvXBXBXNXNXMXNXbXvX8XFXFXFXFXFXFXFXFXFXFXFXFXFXFXFXFXFXFXFXFXFXFXFXFXFXFXFXFXFXFXFXFXFXFXFXFXFXFXFXFXFXFX",
"FXFXFXFXFXFXFXFXFXFX7XdXbXBXNXNXNXbXbXvXwX>XFXFXFXFXFXFXFXFXFXFXFXFXFXFXFXFXFXFXFXFXFXFXFXFXFXFXFXFXFXFXFXFXFXFXFXFXFXFXFXFXFX",
"FXFXFXFXFXFXFXFXFXFX3XvXbXBXBXBXNXbXbXvX8X8.FXFXFXFXFXFXFXFXFXFXFXFXFXFXFXFXFXFXFXFXFXFXFXFXFXFXFXFXFXFXFXFXFXFXFXFXFXFXFXFXFX",
"FXFXFXFXFXFXFXFXFXFXqXvXnXbXnXbXbXbXnXiX8.FXFXFXFXFXFXFXFXFXFXFXFXFXFXFXFXFXFXFXFXFXFXFXFXFXFXFXFXFXFXFXFXFXFXFXFXFXFXFXFXFXFX",
"FXFXFXFXFXFXFXFXFX>XqXwXiXvXvXnXnXvXnX3XFXFXFXFXFXFXFXFXFXFXFXFXFXFXFXFXFXFXFXFXFXFXFXFXFXFXFXFXFXFXFXFXFXFXFXFXFXFXFXFXFXFXFX",
"FXFXFXFXFXFXFXFXFXFX7XeXqXwXiXvXvXiXiX3XFXFXFXFXFXFXFXFXFXFXFXFXFXFXFXFXFXFXFXFXFXFXFXFXFXFXFXFXFXFXFXFXFXFXFXFXFXFXFXFXFXFXFX",
"FXFXFXFXFXFXFXFXFXFXFX2XqXqXwXwX8XqXeX8.FXFXFXFXFXFXFXFXFXFXFXFXFXFXFXFXFXFXFXFXFXFXFXFXFXFXFXFXFXFXFXFXFXFXFXFXFXFXFXFXFXFXFX",
"FXFXFXFXFXFXFXFXFXFXFXFX7XeXqXeX>XFXFXFXFXFXFXFXFXFXFXFXFXFXFXFXFXFXFXFXFXFXFXFXFXFXFXFXFXFXFXFXFXFXFXFXFXFXFXFXFXFXFXFXFXFXFX",
"FXFXFXFXFXFXFXFXFXFXFXFX>X7XeX2XFXFXFXFXFXFXFXFXFXFXFXFXFXFXFXFXFXFXFXFXFXFXFXFXFXFXFXFXFXFXFXFXFXFXFXFXFXFXFXFXFXFXFXFXFXFXFX",
"FXFXFXFXFXFXFXFXFXFXFXFXFXh.>XFXFXFXFXFXFXFXFXFXFXFXFXFXFXFXFXFXFXFXFXFXFXFXFXFXFXFXFXFXFXFXFXFXFXFXFXFXFXFXFXFXFXFXFXFXFXFXFX",
"FXFXFXFXFXFXFXFXFXFXFXFXFXFXFXFXFXFXFXFXFXFXFXFXFXFXFXFXFXFXFXFXFXFXFXFXFXFXFXFXFXFXFXFXFXFXFXFXFXFXFXFXFXFXFXFXFXFXFXFXFXFXFX",
"FXFXFXFXFXFXFXFXFXFXFXFXFXFXFXFXFXFXFXFXFXFXFXFXFXFXFXFXFXFXFXFXFXFXFXFXFXFXFXFXFXFXFXFXFXFXFXFXFXFXFXFXFXFXFXFXFXFXFXFXFXFXFX",
"FXFXFXFXFXFXFXFXFXFXFXFXFXFXFXFXFXFXFXFXFXFXFXFXFXFXFXFXFXFXFXFXFXFXFXFXFXFXFXFXFXFXFXFXFXFXFXFXFXFXFXFXFXFXFXFXFXFXFXFXFXFXFX",
"FXFXFXFXFXFXFXFXFXFXFXFXFXFXFXFXFXFXFXFXFXFXFXFXFXFXFXFXFXFXFXFXFXFXFXFXFXFXFXFXFXFXFXFXFXFXFXFXFXFXFXFXFXFXFXFXFXFXFXFXFXFXFX"
};
